<svg width="1437" height="482" viewBox="0 0 1437 482" fill="none" xmlns="http://www.w3.org/2000/svg">
<path d="M381.161 412.442C374.238 409.683 371.113 404.886 371.956 398.817C372.73 393.25 376.977 389.238 382.779 388.592C388.767 387.925 393.715 390.706 395.761 395.888C397.86 401.205 396.306 407.714 391.311 410.521C388.552 412.072 384.84 411.926 381.161 412.442Z" fill="white"/>
<path d="M324.973 359.789C330.818 361.766 334.129 365.455 334.289 371.326C334.429 376.456 331.91 380.379 327.383 382.643C323.006 384.831 318.591 384.213 314.631 381.359C310.196 378.163 308.623 372.244 310.634 366.972C312.697 361.566 317.368 359.129 324.973 359.789Z" fill="white"/>
<path d="M427.397 371.383C426.864 377.482 424.207 381.654 418.487 383.212C413.755 384.5 409.408 383.241 406.183 379.613C402.692 375.686 401.996 371.011 404.003 366.044C405.777 361.656 411.167 358.703 416.314 359.32C422.814 360.099 426.149 363.612 427.397 371.383Z" fill="white"/>
<path d="M334.246 339.928C334.541 347.054 332.261 351.293 327.255 353.461C322.605 355.475 316.929 354.314 313.396 350.627C309.665 346.733 308.788 341.579 311.2 336.719C313.512 332.061 317.412 329.811 322.572 330.035C328.743 330.303 332.297 333.943 334.246 339.928Z" fill="white"/>
<path d="M348.309 411.897C341.693 407.551 339.51 401.917 341.788 395.867C343.671 390.864 349.037 387.847 354.788 388.556C361.77 389.417 366.37 395.671 365.191 402.7C364.065 409.418 357.875 413.839 351.193 412.675C350.343 412.527 349.514 412.258 348.309 411.897Z" fill="white"/>
<path d="M335.995 284.602C335.031 295.638 323.17 299.602 315.609 293.29C311.631 289.968 310.305 285.616 311.804 280.608C313.326 275.522 317.888 271.944 323.003 271.922C328.34 271.899 332.412 274.271 334.705 279.17C335.426 280.71 335.59 282.51 335.995 284.602Z" fill="white"/>
<path d="M222.176 144.616C219.526 137.45 220.631 132.142 225.178 128.875C229.665 125.65 236.461 125.807 240.704 129.327C244.326 132.333 245.994 136.19 245.016 140.881C243.946 146.013 240.587 149.091 235.561 150.143C230.126 151.281 225.645 149.547 222.176 144.616Z" fill="white"/>
<path d="M455.558 409.102C450.966 413.447 445.991 414.059 440.862 411.436C436.047 408.974 434.006 404.537 434.415 399.271C434.779 394.587 437.301 390.99 441.802 389.38C446.525 387.691 451.122 388.202 454.942 391.807C458.754 395.406 459.58 399.859 458.05 404.733C457.594 406.185 456.577 407.462 455.558 409.102Z" fill="white"/>
<path d="M325.362 325.059C316.029 324.854 310.857 320.022 311.32 312.392C311.775 304.87 317.415 300.382 325.264 301.295C330.938 301.955 335.517 306.679 335.98 312.348C336.444 318.033 332.583 322.818 325.362 325.059Z" fill="white"/>
<path d="M230.187 184.896C236.176 184.433 240.536 186.629 242.895 191.666C245.15 196.482 244.161 201.183 240.65 205.177C237.311 208.975 232.992 209.679 228.318 208.385C223.05 206.926 219.445 201.805 219.561 196.249C219.682 190.503 223.037 186.807 230.187 184.896Z" fill="white"/>
<path d="M230.182 155.656C238.36 155.804 242.812 159.292 243.93 166.04C244.858 171.635 241.71 176.991 236.395 178.863C230.429 180.964 224.266 178.684 221.123 173.213C217.098 166.207 221.161 157.996 230.182 155.656Z" fill="white"/>
<path d="M304.01 318.183C297.479 327.751 286.77 327.906 281.988 318.836C279.372 313.873 280.243 308.234 284.203 304.498C288.25 300.68 294.331 300.052 299.148 302.955C304.35 306.09 306.002 310.975 304.01 318.183Z" fill="white"/>
<path d="M190.619 86.4207C187.836 79.7703 188.792 75.0813 193.458 71.1222C197.502 67.6917 203.168 67.1427 207.598 69.7523C211.713 72.177 214.079 78.2165 213.004 83.5071C212.058 88.1598 208.913 90.7603 204.6 91.8345C198.976 93.2352 194.333 91.3717 190.619 86.4207Z" fill="white"/>
<path d="M360.009 352.401C352.634 357.226 343.964 352.2 341.738 346.603C339.228 340.294 342.322 333.368 348.876 330.84C354.097 328.827 360.133 330.763 363.135 335.414C366.785 341.068 365.838 346.759 360.009 352.401Z" fill="white"/>
<path d="M423.678 391.776C427.839 396.705 428.349 401.767 425.4 407.011C422.941 411.384 418.818 413.204 414.006 412.788C409.196 412.373 405.558 409.921 403.805 405.13C402.03 400.277 402.658 395.75 406.229 392.094C409.817 388.421 414.468 387.884 419.274 389.337C420.733 389.778 422.026 390.771 423.678 391.776Z" fill="white"/>
<path d="M434.514 372.965C434.783 365.155 437.891 361.013 444.149 359.658C449.301 358.542 454.85 361.139 457.389 365.855C459.978 370.663 458.853 376.898 454.722 380.64C447.725 386.977 437.928 383.432 434.514 372.965Z" fill="white"/>
<path d="M228.653 120.86C223.003 118.65 220.177 114.662 220.237 109.128C220.291 104.251 222.897 100.483 227.407 98.5148C232.06 96.4848 236.591 97.0465 240.584 100.366C244.931 103.979 246.054 109.659 243.549 115.003C241.071 120.288 235.995 122.38 228.653 120.86Z" fill="white"/>
<path d="M127.377 105.282C132.129 97.4765 139.878 95.3174 146.024 99.7756C150.864 103.286 152.482 108.765 150.231 114.022C147.718 119.89 142.273 122.894 136.418 121.641C130.719 120.421 126.643 115.543 126.615 109.747C126.609 108.379 126.999 107.009 127.377 105.282Z" fill="white"/>
<path d="M109.916 97.7527C118.386 100.962 121.68 107.077 119.014 113.908C116.467 120.434 109.39 123.507 102.788 120.953C97.7432 119.001 94.1927 112.766 95.1589 107.555C96.3571 101.093 101.432 97.6028 109.916 97.7527Z" fill="white"/>
<path d="M391.129 361.478C397.138 366.967 398.005 373.977 393.609 379.323C389.784 383.975 382.618 384.988 377.522 381.596C372.173 378.037 370.44 371.018 373.539 365.463C376.805 359.608 383.487 357.976 391.129 361.478Z" fill="white"/>
<path d="M98.0376 72.6801C103.859 67.1145 110.308 66.6415 115.409 71.1015C120.39 75.4556 121.174 82.2855 117.284 87.4335C113.385 92.5938 106.073 93.8244 100.521 90.2547C94.7508 86.5453 93.7529 80.1572 98.0376 72.6801Z" fill="white"/>
<path d="M299.596 294.224C291.928 297.815 285.053 295.896 281.893 289.589C278.918 283.65 281.162 276.602 287.01 273.522C293.174 270.276 300.487 272.583 303.926 278.859C306.688 283.9 305.383 288.859 299.596 294.224Z" fill="white"/>
<path d="M211.294 131.748C214.453 137.097 214.177 142.121 210.624 146.587C207.735 150.221 203.55 151.671 198.97 150.495C193.928 149.2 190.459 146.031 189.253 140.746C188.114 135.758 190.482 130.678 195.2 128.069C200.383 125.202 206.099 126.419 211.294 131.748Z" fill="white"/>
<path d="M158.195 112.387C157.191 104.604 160.967 98.913 167.563 97.7087C174.183 96.5 179.871 99.9777 181.579 106.279C183.336 112.759 179.928 119.278 173.739 121.276C167.232 123.377 161.467 120.206 158.195 112.387Z" fill="white"/>
<path d="M290.82 266.85C282.942 264.025 279.766 259.248 281.067 252.763C282.289 246.669 287.051 242.773 293.213 242.825C299.695 242.879 304.835 247.675 305.235 254.043C305.641 260.5 301.275 265.947 294.879 266.865C293.691 267.035 292.459 266.901 290.82 266.85Z" fill="white"/>
<path d="M209.129 118.994C204.905 121.835 200.74 122.39 196.439 120.399C190.088 117.458 187.12 109.918 189.959 104.254C192.871 98.4451 201.145 95.871 207.148 98.9068C213.185 101.96 215.284 109.106 211.913 115.422C211.269 116.629 210.268 117.645 209.129 118.994Z" fill="white"/>
<path d="M350.733 359.691C359.328 359.114 364.826 363.358 365.306 370.547C365.737 376.985 361.165 382.752 355.028 383.513C348.208 384.359 342.015 379.418 341.115 372.415C340.365 366.573 343.36 362.469 350.733 359.691Z" fill="white"/>
<path d="M144.381 90.9921C138.618 93.4319 133.654 92.5664 129.692 88.3662C126.483 84.9647 125.827 80.6479 127.43 76.2065C129.282 71.078 133.968 67.832 138.948 68.0067C144.395 68.1979 148.805 71.8427 150.582 77.6232C152.091 82.5344 150.145 86.9234 144.381 90.9921Z" fill="white"/>
<path d="M260.676 155.73C269.181 155.421 273.784 158.778 275.028 165.816C276.026 171.463 272.56 177.109 267.057 178.799C260.284 180.88 253.46 177.494 251.547 171.105C249.535 164.383 253.005 158.301 260.676 155.73Z" fill="white"/>
<path d="M259.509 214.182C267.269 214.071 271.258 216.38 273.199 221.8C274.874 226.48 273.373 231.881 269.531 234.998C265.429 238.325 259.471 238.643 254.928 235.64C250.971 233.024 249.024 229.163 249.584 224.527C250.249 219.005 253.416 215.354 259.509 214.182Z" fill="white"/>
<path d="M181.959 79.1887C181.446 86.6372 178.558 90.6821 173.152 92.0238C168.259 93.2384 162.518 91.0858 159.907 86.989C156.981 82.3967 157.236 77.7965 160.209 73.3618C162.988 69.216 167.095 67.5234 171.899 68.2812C177.748 69.2038 180.791 73.1659 181.959 79.1887Z" fill="white"/>
<path d="M294.208 213.686C300.498 214.929 304.372 218.184 305.299 224.299C306.059 229.306 304.06 233.216 299.824 235.776C295.273 238.527 290.555 238.502 286.073 235.47C281.867 232.626 280.073 227.545 281.384 222.643C282.939 216.831 286.601 214.169 294.208 213.686Z" fill="white"/>
<path d="M274.106 191.34C276.384 197.177 275.314 202.053 270.916 205.848C267.207 209.048 262.784 209.609 258.244 207.602C253.191 205.368 251.124 201.144 251.181 195.875C251.239 190.564 254.085 187.11 259.077 185.463C264.928 183.533 269.526 185.282 274.106 191.34Z" fill="white"/>
<path d="M273.755 254.533C272.678 262.008 269.259 265.935 263.405 266.825C258.091 267.632 252.578 264.756 250.496 260.099C248.35 255.297 249.371 250.956 252.473 246.967C255.49 243.089 259.704 242.129 264.162 243.149C269.83 244.446 272.899 248.435 273.755 254.533Z" fill="white"/>
<mask id="mask0_151_103" style="mask-type:luminance" maskUnits="userSpaceOnUse" x="330" y="68" width="148" height="53">
<path d="M330 68H477.738V121H330V68Z" fill="white"/>
</mask>
<g mask="url(#mask0_151_103)">
<mask id="mask1_151_103" style="mask-type:luminance" maskUnits="userSpaceOnUse" x="330" y="68" width="140" height="53">
<path d="M354.92 68H445.08C451.701 68 458.031 70.7929 462.705 75.7454C467.379 80.6817 470 87.4041 470 94.4026C470 101.417 467.379 108.123 462.705 113.076C458.031 118.028 451.701 120.805 445.08 120.805H354.92C348.314 120.805 341.969 118.028 337.295 113.076C332.636 108.123 330 101.417 330 94.4026C330 87.4041 332.636 80.6817 337.295 75.7454C341.969 70.7929 348.314 68 354.92 68Z" fill="white"/>
</mask>
<g mask="url(#mask1_151_103)">
<path d="M354.92 68H445.08C451.701 68 458.031 70.7929 462.705 75.7454C467.379 80.6817 470 87.4041 470 94.4026C470 101.417 467.379 108.123 462.705 113.076C458.031 118.028 451.701 120.805 445.08 120.805H354.92C348.314 120.805 341.969 118.028 337.295 113.076C332.636 108.123 330 101.417 330 94.4026C330 87.4041 332.636 80.6817 337.295 75.7454C341.969 70.7929 348.314 68 354.92 68Z" stroke="white" stroke-width="38"/>
</g>
</g>
<path d="M1254 400.781C1254.17 394.123 1256.91 389.525 1262.83 387.775C1267.94 386.267 1273.03 386.729 1276.82 391.228C1280.35 395.424 1280.87 400.304 1278.73 405.304C1276.67 410.135 1272.89 412.957 1267.69 412.999C1262.22 413.044 1257.87 410.608 1255.3 405.47C1254.65 404.173 1254.45 402.64 1254 400.781Z" fill="white"/>
<path d="M633.168 302.174C640.773 304.759 643.92 309.26 642.769 315.393C641.728 320.941 636.784 324.982 631.014 325C625.152 325.019 619.932 320.652 619.121 314.915C618.099 307.691 623.634 300.809 633.168 302.174Z" fill="white"/>
<path d="M1228.66 304.027C1238.13 299.589 1247.09 302.714 1248.74 310.717C1249.93 316.513 1246.96 321.893 1241.31 324.154C1236.01 326.276 1229.32 324.28 1225.95 319.571C1222.64 314.941 1223.55 309.032 1228.66 304.027Z" fill="white"/>
<path d="M557.066 318.762C554.005 310.198 557.729 303.389 565.783 302.19C572.306 301.22 578.195 304.031 580.193 309.069C582.314 314.416 580.153 320.183 574.892 323.215C569.681 326.218 563.397 325.389 558.823 321.057C558.209 320.476 557.758 319.75 557.066 318.762Z" fill="white"/>
<path d="M1316 312.203C1317.91 305.319 1321.9 302.143 1328.36 302.004C1334.71 301.867 1339.95 305.183 1341.57 310.369C1343.08 315.185 1340.49 320.606 1335.36 323.333C1326.65 327.97 1316.77 322.508 1316 312.203Z" fill="white"/>
<path d="M1195.39 305.457C1201.94 299.228 1213.97 301.811 1216.47 310.046C1218.17 315.612 1215.69 321.085 1210.34 323.786C1205.43 326.261 1199 324.862 1194.8 320.407C1190.92 316.281 1191.03 311.009 1195.39 305.457Z" fill="white"/>
<path d="M1131 314.55C1131.34 305.713 1137.05 301.057 1145.72 302.16C1152.66 303.044 1157.17 309.236 1155.73 315.91C1154.68 320.808 1149.58 324.747 1144 324.986C1137.72 325.256 1132.97 321.569 1131 314.55Z" fill="white"/>
<path d="M1119.7 322.965C1112.62 327.705 1104.42 323.382 1101.99 317.995C1099.35 312.128 1102.16 305.457 1108.31 302.901C1113.5 300.744 1120.1 302.592 1123.09 307.037C1126.47 312.058 1125.38 317.643 1119.7 322.965Z" fill="white"/>
<path d="M670.718 321.274C662.986 325.848 655.288 324.541 651.52 318.296C648.139 312.691 650.589 305.854 656.968 303.089C662.308 300.776 668.904 302.247 672.516 306.558C676.305 311.08 675.801 315.901 670.718 321.274Z" fill="white"/>
<path d="M620.092 286.968C619.39 278.364 622.748 272.692 629.061 271.232C634.355 270.007 640.51 273.771 642.298 279.327C644.283 285.493 641.939 292.32 636.781 295.402C630.245 299.306 623.175 295.892 620.092 286.968Z" fill="white"/>
<path d="M744.601 319.214C741.863 312.962 742.659 308.234 746.821 304.694C750.49 301.573 756.408 301.101 760.472 303.607C764.917 306.346 766.915 311.135 765.603 316.257C764.439 320.8 761.333 323.617 756.958 324.656C751.83 325.875 747.772 323.805 744.601 319.214Z" fill="white"/>
<path d="M1230.44 295.398C1223.99 290.218 1222.26 282.814 1225.82 276.981C1229.33 271.253 1237.01 269.28 1242.72 272.643C1248.4 275.993 1250.58 283.341 1247.79 289.728C1244.75 296.68 1238.57 298.821 1230.44 295.398Z" fill="white"/>
<path d="M1294.15 296.49C1287.11 292.96 1284.08 287.658 1285.24 281.477C1286.27 275.964 1290.79 271.819 1296.54 271.109C1302.69 270.352 1308.51 273.597 1311 279.002C1314.7 287.054 1307.97 299.695 1294.15 296.49Z" fill="white"/>
<path d="M1288.85 305.123C1295.94 301.08 1302.15 301.004 1307.37 304.655C1311.55 307.582 1313.14 312.572 1311.14 316.743C1309.03 321.151 1304.98 323.591 1299.46 323.957C1293.89 324.325 1289.4 322.345 1286.75 318.177C1283.89 313.667 1284.49 309.294 1288.85 305.123Z" fill="white"/>
<path d="M720.185 388.054C729.181 387.525 734.302 390.92 735.781 398.033C736.943 403.621 733.361 410.086 727.969 412.135C721.321 414.661 713.596 411.454 711.039 405.105C708.087 397.778 711.517 391.098 720.185 388.054Z" fill="white"/>
<path d="M690.185 388.054C699.181 387.525 704.302 390.92 705.781 398.033C706.943 403.621 703.361 410.086 697.969 412.135C691.321 414.661 683.596 411.454 681.039 405.105C678.087 397.778 681.517 391.098 690.185 388.054Z" fill="white"/>
<path d="M1174.65 302C1182.19 302.576 1186.04 306.539 1186 313.312C1185.97 319.59 1181.3 324.771 1175.49 324.993C1170.03 325.203 1164.64 320.342 1164.08 314.703C1163.4 307.885 1167.15 303.221 1174.65 302Z" fill="white"/>
<path d="M1279.94 340.03C1280.42 346.737 1277.89 351.377 1272.24 353.852C1267.04 356.133 1262.18 354.922 1258.08 351.05C1252.65 345.931 1252.67 338.073 1257.97 332.777C1263.17 327.591 1271.89 327.724 1276.54 333.309C1278.02 335.085 1278.79 337.471 1279.94 340.03Z" fill="white"/>
<path d="M1302.39 359.267C1311.16 363.045 1314.1 369.494 1310.5 376.308C1307.32 382.335 1299.23 384.735 1292.44 381.662C1285.8 378.656 1283.12 371.327 1286.4 365.188C1289.05 360.236 1294.23 358.226 1302.39 359.267Z" fill="white"/>
<path d="M1102.37 277.229C1107.49 270.803 1113.34 269.366 1118.97 272.839C1123.82 275.825 1126.13 282.035 1124.46 287.625C1122.31 294.861 1115.37 298.713 1108.91 296.262C1101.77 293.557 1099.13 286.213 1102.37 277.229Z" fill="white"/>
<path d="M1053.34 128.476C1057.68 132.743 1059.21 137.516 1056.99 143.295C1054.96 148.552 1051.09 151.04 1046.16 151C1041.36 150.96 1037.84 148.175 1035.89 143.207C1033.97 138.34 1035.22 132.722 1039.01 128.922C1042.7 125.222 1047.32 124.995 1053.34 128.476Z" fill="white"/>
<path d="M650.862 133.672C655.916 126.043 663.565 123.91 669.562 128.147C674.758 131.818 676.398 137.902 673.754 143.699C671.48 148.686 665.284 151.906 660.143 150.773C653.725 149.358 649.659 144.147 650.023 137.695C650.092 136.465 650.456 135.252 650.862 133.672Z" fill="white"/>
<path d="M643 136.948C642.811 144.922 639.933 149.187 634.063 150.689C629.077 151.965 623.629 149.211 621.282 144.228C618.864 139.097 619.935 132.949 623.914 129.114C630.487 122.778 639.945 126.468 643 136.948Z" fill="white"/>
<path d="M1258.04 175.358C1253.04 169.325 1252.75 164.769 1256.79 159.732C1260.24 155.42 1266.5 153.835 1271.95 155.895C1276.95 157.785 1281.19 163.299 1279.69 168.115C1278.59 171.649 1275.71 175.472 1272.45 177.444C1267.91 180.182 1262.62 179.196 1258.04 175.358Z" fill="white"/>
<path d="M1255.1 308.493C1259.59 302.896 1264.41 300.975 1270.62 302.507C1275.75 303.772 1279.13 306.748 1279.86 311.442C1280.62 316.326 1278.24 320.085 1273.35 322.448C1268.43 324.823 1263.37 324.461 1259 321.44C1254.27 318.172 1252.73 313.879 1255.1 308.493Z" fill="white"/>
<path d="M550.465 317.638C546.14 323.961 540.93 326.17 535.15 324.423C528.371 322.374 524.575 316.079 526.499 310.075C528.352 304.292 535.741 300.746 542.468 302.413C549.239 304.09 552.329 309.735 550.465 317.638Z" fill="white"/>
<path d="M731.202 304.132C736.802 309.522 737.462 314.922 733.382 319.635C729.919 323.635 723.197 325.133 717.884 323.088C711.878 320.776 708.908 315.593 710.367 309.965C712.306 302.479 721.8 299.678 731.202 304.132Z" fill="white"/>
<path d="M1154.85 280.252C1155.64 288.782 1153.33 293.679 1147.68 296.068C1142.48 298.272 1136.52 296.464 1133.37 291.731C1129.15 285.383 1130.72 276.868 1136.86 272.876C1143.26 268.709 1150.74 271.62 1154.85 280.252Z" fill="white"/>
<path d="M1296.32 411.998C1287.7 409.481 1283.63 403.465 1285.41 396.374C1287.07 389.758 1293.58 386.011 1301.31 387.228C1307.73 388.238 1312.38 393.841 1311.98 400.086C1311.49 407.76 1306 412.095 1296.32 411.998Z" fill="white"/>
<path d="M696.189 330.235C702.58 334.07 704.974 339.076 703.647 345.241C702.437 350.856 697.848 354.972 692.763 355C687.55 355.029 682.96 350.983 681.43 345.012C679.129 336.033 686.342 328.566 696.189 330.235Z" fill="white"/>
<path d="M1309.64 337.873C1311.06 346.357 1308.27 351.935 1301.77 354.265C1296.1 356.3 1289.76 353.991 1286.77 348.796C1283.2 342.597 1285.21 334.401 1291.16 330.867C1298.01 326.801 1305.42 329.482 1309.64 337.873Z" fill="white"/>
<path d="M1274.74 128.324C1280.07 133.894 1281.25 138.798 1278.73 143.775C1276.29 148.575 1270.96 151.491 1265.64 150.932C1260.08 150.348 1255.59 146.617 1254.35 141.309C1253.21 136.395 1254.89 132.239 1258.66 129.136C1263.56 125.105 1268.95 125.098 1274.74 128.324Z" fill="white"/>
<path d="M1308.59 161.065C1311.42 167.858 1309.95 172.984 1304.54 176.174C1299.57 179.1 1292.68 178.447 1288.59 174.662C1284.26 170.663 1283.81 164.621 1287.46 159.619C1292.3 152.993 1301.91 153.513 1308.59 161.065Z" fill="white"/>
<path d="M719.353 354.347C711.747 350.73 709.029 346.042 710.301 339.339C711.476 333.144 716.011 329.134 722.231 329.004C727.382 328.897 731.555 330.835 734.158 335.553C736.85 340.431 736.593 345.282 733.375 349.721C730.006 354.369 725.386 356.058 719.353 354.347Z" fill="white"/>
<path d="M1258.99 89.5728C1252.75 83.4692 1252.41 77.4357 1257.69 71.8772C1261.99 67.3528 1269.49 66.6943 1274.54 70.3973C1280.33 74.6346 1281.68 81.5898 1277.79 87.0694C1273.9 92.5485 1266.97 93.5766 1258.99 89.5728Z" fill="white"/>
<path d="M563.964 296.396C557.074 292.99 554.375 288.608 555.12 282.141C555.771 276.489 559.19 273.134 564.39 271.558C569.716 269.944 575.278 271.901 578.533 276.557C581.893 281.361 581.65 286.527 578.838 291.312C575.575 296.866 570.275 297.853 563.964 296.396Z" fill="white"/>
<path d="M542.56 296.727C535.861 297.809 530.847 295.695 527.69 290.02C525.356 285.825 525.402 281.385 528.064 277.227C531.233 272.277 537.029 269.911 542.397 271.481C547.857 273.079 551.096 276.89 551.876 282.654C552.682 288.611 549.567 293.346 542.56 296.727Z" fill="white"/>
<path d="M1238.5 151C1228.94 150.668 1223.4 145.148 1224.05 137.077C1224.6 130.195 1230.78 125.327 1238 126.076C1243.64 126.662 1248.29 131.305 1248.91 136.961C1249.61 143.487 1246.31 148.107 1238.5 151Z" fill="white"/>
<path d="M1272.51 359.709C1279.22 364.137 1281.31 368.987 1279.23 374.56C1277.19 380.022 1272.06 383.334 1266.19 382.973C1260.26 382.608 1255.55 378.446 1254.27 372.428C1252.31 363.26 1261.3 356.787 1272.51 359.709Z" fill="white"/>
<path d="M1265.93 297C1258.39 295.123 1254.15 290.352 1254 284.067C1253.87 278.371 1258.11 272.829 1263.69 271.402C1269.49 269.919 1275.45 272.622 1278.48 278.109C1283.07 286.449 1276.79 296.276 1265.93 297Z" fill="white"/>
<path d="M1298.93 239C1289.06 237.931 1283.76 231.972 1285.25 224.132C1286.65 216.799 1294.27 212.475 1302.23 214.498C1308.16 216.006 1312.24 221.267 1311.99 227.088C1311.72 233.325 1307.26 237.521 1298.93 239Z" fill="white"/>
<path d="M1171.85 296.949C1163.92 292.744 1161.15 285.672 1164.23 278.394C1166.99 271.859 1173.82 269.159 1179.57 272.323C1184.39 274.97 1186.97 281.345 1185.66 287.38C1184.16 294.34 1179.85 297.444 1171.85 296.949Z" fill="white"/>
<path d="M714.874 174.086C710.532 167.825 711.208 161.017 716.24 157.383C721.296 153.731 728.449 154.339 732.702 158.782C737.084 163.36 737.101 170.145 732.741 174.541C728.059 179.262 721.498 179.188 714.874 174.086Z" fill="white"/>
<path d="M690.803 177.961C685.594 176.395 682.45 173.057 682.043 167.715C681.676 162.912 683.669 158.845 687.765 156.528C691.805 154.244 695.931 154.483 699.711 157.5C703.412 160.455 704.993 166.327 703.356 170.956C701.662 175.745 697.169 178.354 690.803 177.961Z" fill="white"/>
<path d="M1255.72 189.841C1259.94 184.46 1265.27 182.875 1271.49 184.765C1276.44 186.269 1279.31 189.808 1279.92 194.738C1280.53 199.751 1277.67 204.506 1272.81 206.617C1267.69 208.835 1262.66 208.485 1258.48 204.835C1253.84 200.776 1252.6 195.774 1255.72 189.841Z" fill="white"/>
<path d="M1200.41 296.281C1193.93 292.4 1191.26 287.538 1192.17 281.816C1193.02 276.512 1197.16 272.226 1202.41 271.211C1207.5 270.227 1212.48 272.731 1215.26 277.805C1217.81 282.459 1217.5 287.166 1214.71 291.485C1211.32 296.715 1206.46 298.004 1200.41 296.281Z" fill="white"/>
<path d="M1334.64 272.067C1341.76 277.458 1343.68 283.458 1340.55 289.647C1337.53 295.623 1330.79 298.441 1324.69 296.273C1318.24 293.978 1314.54 286.536 1316.55 279.893C1318.84 272.313 1325.8 269.166 1334.64 272.067Z" fill="white"/>
<path d="M750.918 296.599C744.861 293.544 741.407 288.189 742.084 282.634C742.744 277.217 745.401 273.303 750.314 271.641C755.303 269.953 760.217 271.639 763.474 276.243C766.658 280.746 766.721 285.74 764.285 290.462C761.477 295.904 756.937 297.944 750.918 296.599Z" fill="white"/>
<path d="M699.285 294.892C692.358 298.971 686.138 296.995 683.239 290.139C680.587 283.868 682.323 276.27 687.195 272.831C692.426 269.137 699.271 271.21 702.448 277.452C705.286 283.025 704.232 289.341 699.285 294.892Z" fill="white"/>
<path d="M1295.34 184.118C1303.4 183.427 1308.37 185.777 1310.87 191.155C1313.12 195.994 1311.97 201.114 1307.83 204.652C1303.59 208.287 1296.92 209.079 1291.74 206.45C1286.63 203.858 1284.59 199.663 1285.07 194.549C1285.59 189.068 1288.92 185.538 1295.34 184.118Z" fill="white"/>
<path d="M606.844 295.454C599.58 298.324 594.122 297.159 590.532 292.284C587.336 287.947 587.111 280.804 590.168 276.549C593.342 272.132 597.637 270.21 602.834 271.298C607.757 272.328 611.235 275.468 612.502 280.614C613.989 286.656 612.157 291.622 606.844 295.454Z" fill="white"/>
<path d="M605.643 186.569C612.526 183.009 617.263 183.153 621.596 186.977C625.489 190.413 627.069 194.698 625.243 199.648C623.424 204.579 620.02 207.837 614.29 207.994C608.893 208.143 604.294 205.294 602.114 200.416C599.911 195.489 600.919 191.249 605.643 186.569Z" fill="white"/>
<path d="M717.1 360.098C724.341 357.939 729.627 358.956 733.045 363.223C736.479 367.511 737.002 372.166 734.183 376.969C731.44 381.643 727.033 383.359 721.628 382.939C716.314 382.526 711.877 378.858 710.522 374.013C708.946 368.378 710.881 364.081 717.1 360.098Z" fill="white"/>
<path d="M1194.64 142.933C1193.07 136.895 1194.37 132.134 1198.79 128.618C1202.47 125.696 1206.58 125.204 1210.78 127.222C1217.25 130.332 1219.8 137.955 1216.66 144.408C1213.61 150.687 1205.86 153.011 1200.03 149.042C1197.99 147.647 1196.53 145.262 1194.64 142.933Z" fill="white"/>
<path d="M1271.26 238.411C1259.03 241.654 1252.37 230.759 1254.34 223.863C1256.07 217.812 1260.78 214.011 1267.05 214C1273.1 213.99 1278.15 217.759 1279.57 223.35C1281.15 229.576 1278.42 234.744 1271.26 238.411Z" fill="white"/>
<path d="M682.301 83.661C681.209 77.2597 683.123 72.0277 687.461 69.578C691.794 67.1318 696.018 67.4927 699.858 70.9196C703.578 74.2399 704.97 79.6352 703.303 84.4471C701.682 89.1258 698.352 91.5682 693.918 91.9476C688.392 92.4208 684.503 89.6902 682.301 83.661Z" fill="white"/>
<path d="M644.059 172.08C638.986 178.471 632.045 179.751 626.606 175.611C621.354 171.613 620.489 164.784 624.551 159.383C627.786 155.082 634.205 153.734 639.272 156.292C644.433 158.897 646.316 164.755 644.059 172.08Z" fill="white"/>
<path d="M672.499 290.336C668.329 296.329 663.39 298.244 658.008 296.225C652.779 294.264 649.641 289 650.033 282.846C650.393 277.183 654.239 272.495 659.513 271.288C664.597 270.125 670.52 272.509 672.372 277.908C673.601 281.492 672.678 285.927 672.499 290.336Z" fill="white"/>
<path d="M1304.83 149.82C1296.37 152.528 1289.55 150.484 1286.49 144.619C1283.26 138.43 1285.45 130.958 1291.47 127.679C1297.51 124.384 1305.65 126.091 1309.53 131.465C1314 137.664 1312.38 144.491 1304.83 149.82Z" fill="white"/>
<path d="M690.091 126.082C697.605 125.438 702.189 128.592 703.59 135.041C705.113 142.053 702.305 148.266 696.682 150.327C690.805 152.482 684.855 149.315 682.785 142.931C680.538 136.001 683.158 129.691 690.091 126.082Z" fill="white"/>
<path d="M717.943 271.746C726.118 269.677 731.809 271.946 734.723 278.139C737.376 283.779 735.785 290.67 730.973 294.375C725.965 298.23 719.104 297.768 714.12 293.454C708.059 288.207 708.167 275.921 717.943 271.746Z" fill="white"/>
<path d="M588 312.375C589.534 305.493 593.929 301.939 600.394 302.001C606.508 302.059 611.572 305.749 612.749 311.003C613.93 316.278 610.853 321.765 605.486 323.952C600.002 326.186 593.653 324.823 590.352 320.103C588.908 318.039 588.724 315.226 588 312.375Z" fill="white"/>
<path d="M1215.38 157.098C1220.91 161.822 1222.31 166.675 1219.8 171.456C1217.39 176.041 1211.86 178.681 1206.4 177.847C1200.81 176.994 1196.48 172.927 1196.05 167.833C1195.67 163.393 1197.4 159.636 1201.4 157.067C1205.83 154.219 1210.46 154.395 1215.38 157.098Z" fill="white"/>
<path d="M890 399.469C888.74 409.356 883.387 414.28 876.098 412.714C868.77 411.139 864.645 404.4 866.404 396.876C867.676 391.433 872.178 387.987 878.002 388C884.74 388.015 888.163 391.175 890 399.469Z" fill="white"/>
<path d="M1138.04 241.542C1142.74 240.606 1146.82 240.586 1150.32 243.912C1156.23 249.531 1156.59 256.858 1151.11 262.321C1146.04 267.378 1137.96 267.199 1133.12 261.924C1128.34 256.71 1129.14 248.076 1134.91 243.295C1135.71 242.629 1136.73 242.229 1138.04 241.542Z" fill="white"/>
<path d="M685.287 263.284C681.192 258.811 679.773 253.963 682.161 248.338C684.111 243.745 687.342 241.128 692.1 241.005C696.994 240.878 700.555 243.198 702.79 247.926C705.013 252.625 704.077 258.851 700.768 262.399C696.625 266.842 691.635 267.216 685.287 263.284Z" fill="white"/>
<path d="M702.312 363.948C705.728 371.684 703.816 378.966 697.877 381.929C692.197 384.762 685.406 381.773 682.866 375.322C681.052 370.713 682.151 365.331 685.57 362.081C689.201 358.63 694.759 357.969 698.857 360.653C700.054 361.437 701.033 362.623 702.312 363.948Z" fill="white"/>
<path d="M712.713 75.2284C717.341 68.0745 723.898 66.1562 730.243 69.8066C735.652 72.9181 737.643 80.5064 734.511 86.0753C731.698 91.0791 725.126 93.3269 719.534 91.1987C712.976 88.7029 710.689 83.597 712.713 75.2284Z" fill="white"/>
<path d="M1279.53 258.247C1274.31 266.316 1265.78 268.256 1258.99 263.268C1252.87 258.769 1252.3 250.536 1257.72 244.754C1261.29 240.945 1268.06 239.868 1273.18 242.294C1278.75 244.937 1281.08 250.491 1279.53 258.247Z" fill="white"/>
<path d="M1037.2 233.746C1034.02 228.41 1034.45 223.415 1037.48 218.778C1040.24 214.562 1044.29 213.388 1048.79 214.279C1053.42 215.196 1056.24 218.455 1057.58 223.343C1058.99 228.454 1056.73 234.39 1052.34 237.248C1047.46 240.429 1042.1 239.288 1037.2 233.746Z" fill="white"/>
<path d="M1131.13 236.785C1125.16 230.887 1124.41 224.047 1128.83 218.561C1132.89 213.529 1140.32 212.512 1145.69 216.255C1150.82 219.829 1152.52 227.205 1149.52 232.875C1146.15 239.255 1139.34 240.812 1131.13 236.785Z" fill="white"/>
<path d="M1170.99 193.791C1171.18 201.026 1169.04 204.908 1163.73 206.964C1159.04 208.783 1154.5 208.32 1150.85 204.67C1147.17 200.979 1145.96 196.47 1147.95 191.41C1149.63 187.125 1154.64 183.903 1159.4 184.002C1164.73 184.113 1168.77 187.409 1170.99 193.791Z" fill="white"/>
<path d="M526 252.307C528.418 243.374 535.24 239.283 543.081 241.67C549.752 243.702 553.601 251.167 551.359 257.722C549.513 263.117 543.917 266.522 537.862 265.934C530.947 265.264 526.661 260.517 526 252.307Z" fill="white"/>
<path d="M565.13 265.993C558.045 263.362 554.897 259.674 555.003 253.823C555.092 248.842 556.979 244.592 561.646 242.247C566.302 239.907 572.34 240.962 576.137 244.561C579.744 247.981 581.012 253.901 579.141 258.586C577.114 263.661 572.606 266.146 565.13 265.993Z" fill="white"/>
<path d="M588.691 185.27C595.004 189.256 597.116 193.715 595.457 198.931C593.751 204.295 589.565 207.601 584.016 207.968C578.252 208.348 573.049 205.34 570.984 200.26C569.191 195.85 569.785 191.619 573.281 188.204C577.454 184.127 582.514 182.741 588.691 185.27Z" fill="white"/>
<path d="M608 227.663C606.741 234.062 603.083 237.796 596.937 238.802C591.714 239.657 587.293 237.707 584.339 233.533C581.229 229.139 581.304 224.333 584.064 219.696C586.681 215.297 592.134 213.17 597.558 214.299C603.75 215.587 607.206 219.851 608 227.663Z" fill="white"/>
<path d="M1035.9 336.313C1039.74 329.873 1044.78 327.665 1050.1 329.774C1054.67 331.585 1058.29 337.529 1057.98 342.711C1057.63 348.699 1053.46 353.714 1047.93 354.801C1039.12 356.532 1032.52 346.707 1035.9 336.313Z" fill="white"/>
<path d="M734.135 200.851C729.684 207.421 724.001 209.461 717.924 206.978C711.391 204.308 708.311 197.296 710.935 191.064C713.252 185.56 720.542 182.609 726.792 184.646C733.765 186.919 736.575 192.851 734.135 200.851Z" fill="white"/>
<path d="M687.337 323.091C680.931 318.328 679.42 313.025 682.63 307.481C685.432 302.641 691.759 300.66 697.096 302.95C702.7 305.356 705.329 311.259 703.34 316.976C701.235 323.029 695.111 325.492 687.337 323.091Z" fill="white"/>
<path d="M863 312.762C861.448 320.293 856.052 324.451 848.92 323.961C842.695 323.534 837.452 319.032 837.032 313.754C836.572 307.988 841.139 302.919 847.472 302.164C855.78 301.173 861.074 304.668 863 312.762Z" fill="white"/>
<path d="M850.543 271C859.064 273.016 863.553 278.185 862.945 284.839C862.367 291.176 857.59 296.233 851.539 296.914C844.392 297.718 838.052 292.814 837.139 285.776C836.088 277.671 841.039 272.028 850.543 271Z" fill="white"/>
<path d="M855.19 330.933C860.858 334.062 863.773 338.349 862.823 344.173C861.927 349.661 858.387 353.254 852.495 354.598C846.775 355.902 842.275 353.958 838.723 349.877C835.273 345.913 835.131 340.057 838.126 335.653C841.737 330.344 847.043 328.784 855.19 330.933Z" fill="white"/>
<path d="M685.897 236.85C681.609 232.611 679.755 227.917 681.888 221.993C683.721 216.899 687.193 214.203 692.037 214.011C696.834 213.821 700.575 216.059 702.806 220.955C705.004 225.778 704.093 231.856 700.685 235.576C696.993 239.606 691.844 240.14 685.897 236.85Z" fill="white"/>
<path d="M732.289 217.58C737.103 224.5 737.18 229.928 732.831 234.801C729.057 239.028 722.116 240.259 717.062 237.596C710.293 234.03 707.939 225.535 711.988 219.285C716.047 213.02 724.653 212.165 732.289 217.58Z" fill="white"/>
<path d="M837 136.791C839.887 127.837 846.815 124.111 854.638 126.918C861.671 129.442 864.942 137.202 861.808 143.924C859.462 148.956 853.04 151.957 847.258 150.723C840.56 149.293 837.145 144.808 837 136.791Z" fill="white"/>
<path d="M560.388 214.834C566.404 212.9 571.184 214.286 574.673 219.439C577.494 223.606 577.783 228.111 575.361 232.698C572.696 237.744 568.498 239.475 563.373 238.891C558.526 238.339 554.424 234.107 553.264 228.783C552.139 223.618 554.625 218.534 560.388 214.834Z" fill="white"/>
<path d="M1054.7 275.015C1059.37 282.083 1059.03 288.661 1054.02 293.747C1049.52 298.306 1042.74 298.044 1038.41 293.145C1034.11 288.284 1033.84 280.585 1037.8 275.371C1042.08 269.728 1048.29 269.485 1054.7 275.015Z" fill="white"/>
<path d="M814.86 352.451C808.905 347.147 807.544 341.461 810.525 335.525C813.158 330.281 819.094 327.718 824.169 329.633C829.514 331.651 832.72 337.607 831.862 343.927C830.694 352.53 823.294 356.398 814.86 352.451Z" fill="white"/>
<path d="M655.268 118.766C650.192 114.185 648.855 109.577 650.952 104.785C652.942 100.239 657.908 97.5615 663.428 98.0591C668.517 98.5181 672.638 102.02 673.708 107.006C674.716 111.703 673.08 115.639 669.292 118.465C664.961 121.695 660.274 121.885 655.268 118.766Z" fill="white"/>
<path d="M831.313 317.087C827.049 323.541 821.253 325.557 815.675 322.793C810.241 320.1 807.736 314.441 809.624 309.121C811.417 304.069 816.81 301.233 822.821 302.181C828.413 303.063 832.208 307.699 831.991 313.47C831.95 314.573 831.657 315.666 831.313 317.087Z" fill="white"/>
<path d="M1043.9 323.74C1037.25 321.11 1034.12 316.268 1035.22 310.799C1036.22 305.809 1040.64 302.185 1045.93 302.008C1051.69 301.817 1056.09 304.928 1057.62 310.184C1059.8 317.678 1052.32 325.538 1043.9 323.74Z" fill="white"/>
<path d="M811.418 275.816C815.409 271.181 820.184 269.56 824.74 272.423C827.688 274.275 830.466 278.086 831.527 281.678C833.207 287.362 830.201 293.194 825.808 295.653C821.274 298.19 815.634 297.068 812.079 292.922C808.263 288.471 807.938 282.424 811.418 275.816Z" fill="white"/>
<path d="M690.387 207.811C683.958 204.983 680.601 200.166 681.038 194.855C681.447 189.884 684.874 185.566 689.448 184.449C694.275 183.27 698.606 184.321 701.696 188.696C704.508 192.677 704.698 197.148 702.528 201.574C700.03 206.67 696 208.658 690.387 207.811Z" fill="white"/>
<path d="M1043.11 242.066C1052.96 241.244 1059.68 248.205 1057.63 256.588C1056.24 262.288 1051.58 266.096 1046.12 265.998C1041.03 265.907 1036.62 262.214 1035.37 256.998C1033.94 250.997 1036.66 245.512 1043.11 242.066Z" fill="white"/>
<path d="M1178.53 230.72C1174.92 238.2 1168.81 240.858 1163.2 237.682C1157.99 234.731 1155.61 227.565 1157.83 221.559C1160.11 215.425 1166.59 212.424 1172.36 214.83C1177.66 217.041 1180.1 223.031 1178.53 230.72Z" fill="white"/>
<path d="M958.524 388.04C966.378 387.585 970.762 390.997 971.85 398.071C972.76 403.99 969.432 410.557 964.62 412.34C958.809 414.493 952.861 411.225 950.79 404.742C948.483 397.518 951.277 391.209 958.524 388.04Z" fill="white"/>
<path d="M1168.29 163.01C1171.2 154.332 1180.12 153.557 1184.56 156.667C1189.35 160.017 1191.37 166.48 1189.02 171.564C1186.64 176.71 1180.61 179.24 1175.1 177.403C1169.62 175.573 1167.1 170.47 1168.29 163.01Z" fill="white"/>
<path d="M1035 194.222C1036.15 188.229 1039.26 184.036 1044.51 184C1048.01 183.976 1052.09 185.791 1054.88 188.174C1058.28 191.066 1058.84 195.762 1056.87 200.273C1054.83 204.939 1051.54 207.831 1046.59 207.993C1042.07 208.14 1038.56 206.055 1036.61 201.693C1035.65 199.549 1035.48 196.995 1035 194.222Z" fill="white"/>
<path d="M656.631 68.9603C664.246 66.523 669.958 68.7785 672.937 75.1205C675.332 80.2185 673.561 86.5372 668.81 89.8426C663.774 93.3465 657.086 92.5108 652.914 87.8561C647.959 82.3281 649.404 74.2704 656.631 68.9603Z" fill="white"/>
<path d="M841.376 204.905C836.638 199.334 835.736 194.292 838.727 189.823C841.528 185.638 845.79 183.631 851.031 184.056C856.827 184.526 861.34 188.182 862.613 193.222C863.904 198.329 861.893 202.496 857.648 205.661C853.131 209.029 847.484 208.744 841.376 204.905Z" fill="white"/>
<path d="M1254 110.021C1255.75 100.209 1264.55 95.4496 1272.92 99.3769C1277.54 101.544 1280.58 106.51 1279.91 110.804C1279.09 116.049 1274.6 120.078 1268.68 120.877C1263.32 121.6 1257.92 119.092 1255.56 114.643C1254.86 113.318 1254.53 111.831 1254 110.021Z" fill="white"/>
<path d="M726.335 241.26C735.196 245.136 738.234 252.533 734.323 259.736C730.975 265.899 722.675 267.868 716.141 264.048C711.081 261.09 708.963 255.872 710.482 250.109C711.879 244.81 716.338 241.275 722.05 241.013C723.327 240.954 724.614 241.106 726.335 241.26Z" fill="white"/>
<path d="M729.569 119.338C725.262 119.589 720.939 120.598 717.449 119.494C710.652 117.343 708.124 109.603 711.467 103.976C714.986 98.0548 723.642 96.1957 730.287 99.934C736.294 103.313 737.858 110.724 733.565 116.12C732.626 117.301 731.156 118.143 729.569 119.338Z" fill="white"/>
<path d="M903.337 388C911.441 388 915.927 391.487 916.876 398.183C917.694 403.95 914.368 410.295 909.522 412.209C903.338 414.653 897 411.268 894.758 404.325C892.413 397.065 895.575 390.787 903.337 388Z" fill="white"/>
<path d="M1176 196.897C1176.42 188.375 1181.58 183.321 1188.62 184.074C1195.53 184.811 1200.69 190.8 1199.92 197.185C1199.08 204.248 1192.95 209.024 1185.93 207.812C1180.11 206.807 1176.95 203.034 1176 196.897Z" fill="white"/>
<path d="M1053.87 157.853C1057.64 161.968 1059.31 166.316 1056.82 171.325C1054.65 175.683 1050.98 178.056 1046.09 177.999C1041.38 177.944 1038.02 175.533 1036 171.247C1033.89 166.757 1035.21 161.137 1039.12 157.621C1043.05 154.093 1048.14 154.085 1053.87 157.853Z" fill="white"/>
<path d="M847.335 214C856.35 214.094 861.558 217.796 862.838 224.619C863.813 229.817 860.292 235.772 854.974 237.924C847.775 240.838 839.692 237.629 836.899 230.75C834.032 223.688 838.157 216.784 847.335 214Z" fill="white"/>
<path d="M810.625 145.615C807.317 137.252 809.152 130.47 815.283 127.273C821.038 124.273 827.792 126.742 830.708 132.912C833.282 138.358 831.915 144.869 827.454 148.405C822.15 152.61 816.147 151.721 810.625 145.615Z" fill="white"/>
<path d="M1008.09 186.15C1013.85 183.105 1019.14 183.174 1023.91 187.131C1027.66 190.237 1028.72 194.391 1027.54 198.97C1026.25 204.006 1021.98 207.5 1016.89 207.946C1011.46 208.423 1006.58 205.693 1004.25 200.868C1001.77 195.732 1002.95 190.842 1008.09 186.15Z" fill="white"/>
<path d="M1232.64 69.2462C1240.12 68.2357 1244.49 70.3228 1246.9 75.7576C1249.13 80.7999 1247.9 86.3806 1243.87 89.4454C1239.4 92.8448 1233.33 92.8521 1228.58 89.4638C1221.1 84.1253 1223.02 73.7443 1232.64 69.2462Z" fill="white"/>
<path d="M592.316 163.008C594.815 157.46 599.089 154.813 605.168 155.01C610.527 155.184 614.868 158.616 616.453 163.73C617.883 168.342 616.485 172.296 612.551 175.421C608.755 178.436 602.805 178.833 598.276 176.479C593.044 173.759 591.192 169.792 592.316 163.008Z" fill="white"/>
<path d="M825.706 156.044C832.547 161.357 833.891 168.598 829.348 174.052C825.305 178.906 817.803 179.348 812.856 175.023C808.664 171.357 807.802 165.507 810.702 160.4C813.614 155.271 818.565 153.741 825.706 156.044Z" fill="white"/>
<path d="M1285.13 78.2373C1286.87 72.3076 1290.71 68.7593 1297.23 68.0847C1302.26 67.5636 1306.3 69.4709 1309.21 73.1292C1312.7 77.5214 1312.99 82.0714 1309.66 86.6751C1306.76 90.6871 1300.75 92.8787 1295.44 91.6668C1289.66 90.3478 1285.99 87.116 1285.08 81.7115C1284.91 80.6999 1285.06 79.6447 1285.13 78.2373Z" fill="white"/>
<path d="M1305.8 242.997C1312.23 248.713 1313.57 254.078 1310.23 259.632C1307.19 264.679 1300.21 267.22 1294.29 265.426C1286.76 263.138 1283.1 255.851 1285.99 248.891C1289.17 241.226 1296.54 238.899 1305.8 242.997Z" fill="white"/>
<path d="M721.029 151C712.727 148.393 709.278 143.793 710.125 136.935C710.913 130.554 715.54 126.312 722.033 126.017C728.873 125.705 734.198 129.779 735.682 136.458C737.489 144.585 731.453 150.786 721.029 151Z" fill="white"/>
<path d="M831.985 227.707C830.018 236.6 823.716 240.82 816.823 238.26C810.491 235.908 807.34 228.329 809.881 221.559C812.336 215.014 819.709 212.06 825.772 215.358C830.227 217.782 832.194 221.914 831.985 227.707Z" fill="white"/>
<path d="M1121.97 261.878C1115.79 266.918 1110.33 267.284 1105.33 263.263C1101.39 260.094 1099.91 254.247 1101.84 249.1C1103.54 244.575 1106.46 241.575 1111.26 241.086C1116.31 240.573 1120.32 242.331 1123.02 247.014C1125.93 252.066 1125.68 256.923 1121.97 261.878Z" fill="white"/>
<path d="M837.689 258.74C835.78 251.175 837.904 245.255 843.226 242.414C847.825 239.959 854.652 240.759 858.491 244.363C862.399 248.032 864.107 252.315 862.245 257.548C860.475 262.522 856.648 265.238 851.445 265.869C845.464 266.594 840.76 264.322 837.689 258.74Z" fill="white"/>
<path d="M703.332 104.593C705.404 112.993 702.579 118.836 695.924 120.618C689.841 122.247 683.944 118.531 682.317 112.046C681.06 107.031 683.646 101.376 688.212 99.1576C693.616 96.5316 699.05 98.3859 703.332 104.593Z" fill="white"/>
<path d="M840.509 175.057C835.611 170.097 834.79 165.741 837.626 161.204C840.338 156.866 845.742 154.43 851.135 155.114C856.739 155.824 861.245 159.415 862.617 164.444C863.963 169.377 861.679 173.202 857.061 176.045C852.332 178.957 846.698 178.606 840.509 175.057Z" fill="white"/>
<path d="M831.075 258.759C827.201 265.294 821.934 267.462 816.502 265.034C810.903 262.532 807.982 256.701 809.323 250.703C810.868 243.791 815.792 240.193 822.391 241.153C828.154 241.992 832.27 247.526 831.986 254.195C831.926 255.608 831.513 257.003 831.075 258.759Z" fill="white"/>
<path d="M1012.52 330.046C1021.18 329.538 1026.54 333.228 1027.8 340.196C1028.88 346.172 1025.52 352.21 1020.01 354.209C1013.65 356.516 1006.58 353.609 1004.08 347.658C1001.12 340.617 1004.35 333.561 1012.52 330.046Z" fill="white"/>
<path d="M920 400.275C921.106 391.711 925.788 387.601 933.449 388.03C940.147 388.406 944.795 393.008 944.993 399.463C945.209 406.501 940.178 412.374 933.433 412.957C926.858 413.525 921.272 408.434 920 400.275Z" fill="white"/>
<path d="M981.963 389.816C991.81 385.069 1000.8 390.041 1001 399.935C1001.1 405.27 998.013 410.414 993.677 412.118C988.472 414.162 982.923 412.586 979.5 408.089C976.503 404.152 976.12 397.397 978.789 393.219C979.549 392.031 980.678 391.095 981.963 389.816Z" fill="white"/>
<path d="M1246 102.8C1249.67 109.798 1248.2 116.014 1242.37 119.385C1237.03 122.469 1229.59 120.993 1226.17 116.174C1222.74 111.332 1223.45 104.533 1227.76 100.973C1233.2 96.4819 1240.18 97.0696 1246 102.8Z" fill="white"/>
<path d="M1304.31 98.9533C1310.22 102.022 1313.04 106.18 1311.65 111.806C1310.38 116.924 1306.34 119.843 1300.49 120.802C1293.1 122.014 1286.18 117.523 1285.13 110.887C1284.09 104.338 1289.53 98.3647 1297.11 98.0119C1299.35 97.9075 1301.64 98.5105 1304.31 98.9533Z" fill="white"/>
<path d="M828.267 186.942C832.878 193.036 833.18 198.982 829.38 203.876C826.047 208.168 819.671 209.277 814.795 206.411C810.049 203.621 808.069 197.726 809.412 191.929C811.001 185.07 821.566 180.844 828.267 186.942Z" fill="white"/>
<path d="M1026.19 291.23C1020.66 297.557 1014.1 298.683 1008.48 294.597C1003.05 290.647 1001.37 282.759 1004.74 277.085C1008.04 271.523 1015.02 269.452 1021.13 272.223C1027.81 275.253 1029.88 282.573 1026.19 291.23Z" fill="white"/>
<path d="M1011.74 150.726C1004.17 146.928 1001.54 141.332 1003.77 134.517C1005.78 128.361 1012.14 124.841 1018.53 126.347C1024.51 127.757 1028.53 133.605 1027.94 140.023C1027.24 147.699 1020.69 152.184 1011.74 150.726Z" fill="white"/>
<path d="M1024.51 305.295C1028.59 309.769 1029.14 314.297 1025.89 318.87C1023.17 322.705 1018.96 324.554 1013.87 323.854C1008.38 323.099 1004.73 320.071 1003.41 315.282C1002.14 310.649 1003.8 306.739 1008.28 303.974C1013.14 300.973 1018.45 301.378 1024.51 305.295Z" fill="white"/>
<path d="M915.033 276.354C918.535 284.082 917.286 290.884 911.886 294.984C907.091 298.625 900.916 297.223 897.341 291.681C893.799 286.189 894.327 278.742 898.579 274.239C903.234 269.31 909.533 270.001 915.033 276.354Z" fill="white"/>
<path d="M851.626 119.934C843.342 120.5 837.754 117.374 836.314 111.713C834.923 106.245 838.249 100.88 844.325 98.7887C850.107 96.7984 856.528 98.6667 860.035 103.36C864.6 109.468 860.973 116.963 851.626 119.934Z" fill="white"/>
<path d="M1026.52 171.973C1021.58 177.672 1015.77 179.335 1010.11 176.938C1004.76 174.674 1001.98 169.391 1003.35 164.097C1005.08 157.382 1011.57 153.809 1018.55 155.359C1024.92 156.772 1030.85 164.964 1026.52 171.973Z" fill="white"/>
<path d="M879.593 68.0462C885.618 69.924 888.635 73.8868 888.972 79.7938C889.247 84.5957 887.508 88.5085 882.998 90.6202C877.916 92.9992 873.134 92.2824 868.864 88.6205C865.071 85.3668 863.989 80.0583 865.981 75.0876C868.011 70.0224 872.45 67.6306 879.593 68.0462Z" fill="white"/>
<path d="M1028 227.75C1025.35 236.741 1018.68 240.78 1011.33 238.264C1004.51 235.927 1001.18 228.326 1004.01 221.508C1006.19 216.234 1011.86 213.191 1017.64 214.188C1024.01 215.287 1027.59 219.811 1028 227.75Z" fill="white"/>
<path d="M983.564 184.153C991.683 183.159 997.681 187.079 998.844 193.746C999.879 199.678 995.652 206.205 989.843 207.643C983.561 209.199 976.746 205.516 974.716 199.467C972.467 192.767 975.544 187.234 983.564 184.153Z" fill="white"/>
<path d="M1026.06 260.529C1022.07 265.263 1017.43 267.102 1011.79 265.346C1006.89 263.818 1003.87 260.417 1003.14 255.265C1002.34 249.709 1005.06 244.579 1009.9 242.246C1014.58 239.992 1020.42 240.858 1024.04 244.345C1028.5 248.643 1029.22 253.598 1026.06 260.529Z" fill="white"/>
<path d="M898.686 380.516C893.883 375.21 892.825 370.507 895.269 365.447C897.572 360.68 901.466 358.577 906.345 359.07C911.404 359.581 915.098 362.505 916.537 367.81C917.862 372.695 916.264 376.92 912.766 380.228C908.964 383.826 904.514 383.921 898.686 380.516Z" fill="white"/>
<path d="M954.461 100.638C960.109 96.9098 964.972 97.1762 968.701 101.165C972.476 105.205 973.043 110.489 970.239 115.516C967.76 119.963 962.769 122.026 958.177 120.502C950.502 117.955 948.539 108.278 954.461 100.638Z" fill="white"/>
<path d="M951.056 83.0811C950.62 75.6329 952.745 71.074 957.405 68.8892C961.506 66.9663 966.402 68.2167 969.172 72.1107C972.019 76.1129 972.93 80.5094 970.914 85.4579C968.951 90.2783 965.419 92.0809 961.165 91.9972C956.204 91.8996 952.764 88.9797 951.056 83.0811Z" fill="white"/>
<path d="M868.393 364.845C876.328 358.365 886.09 360.366 888.553 368.66C889.872 373.102 888.207 378.315 884.418 380.822C880.28 383.559 875.902 383.749 871.556 381.207C867.106 378.605 865.148 374.11 866.346 369.069C866.673 367.691 867.531 366.428 868.393 364.845Z" fill="white"/>
<path d="M1008.48 380.443C1001.25 372.733 1003.01 364.293 1012.05 361.612C1017.69 359.937 1024.13 361.801 1027.17 365.988C1030.18 370.141 1029.4 376.371 1025.41 379.977C1021.18 383.797 1015.18 384.046 1008.48 380.443Z" fill="white"/>
<path d="M976 110.026C977.158 102.988 980.323 99.2912 985.666 98.2815C991.139 97.2472 996.068 99.0986 998.924 103.25C1001.76 107.371 1001.63 111.517 998.905 115.594C996.278 119.524 992.325 121.452 987.404 120.91C982.161 120.334 978.243 117.848 976.691 112.873C976.439 112.066 976.261 111.24 976 110.026Z" fill="white"/>
<path d="M1027.11 104.77C1028.95 110.396 1028.07 115.116 1023.27 118.568C1019.29 121.431 1014.82 121.82 1010.37 119.448C1005.56 116.884 1003.55 112.808 1004.08 107.697C1004.59 102.799 1007.83 99.8595 1012.59 98.5283C1018.28 96.9373 1022.77 98.9179 1027.11 104.77Z" fill="white"/>
<path d="M839.583 364.86C846.185 360.171 852.161 359.8 857.507 363.498C861.835 366.492 863.254 372.204 860.804 376.77C857.793 382.38 850.152 384.623 843.852 381.744C836.685 378.47 834.932 372.059 839.583 364.86Z" fill="white"/>
<path d="M920 78.3096C921.429 70.4144 929.96 66.0933 936.801 68.8167C943.338 71.4188 946.786 78.7333 944.063 84.8352C941.762 89.9901 935.837 92.91 930.042 91.7452C923.486 90.4275 920.154 86.1181 920 78.3096Z" fill="white"/>
<path d="M977 369.052C978.94 362.394 983.446 358.839 989.298 359.006C994.84 359.163 999.507 362.992 1000.75 368.397C1001.9 373.41 999.02 379.328 994.278 381.7C989.435 384.122 983.031 383.187 979.837 378.668C978.059 376.151 977.845 372.559 977 369.052Z" fill="white"/>
<path d="M1001 81.6217C998.84 88.4675 994.887 91.8346 989.249 91.9955C984.217 92.1391 978.67 88.8471 976.923 84.6813C974.892 79.8372 976.276 74.1464 980.454 70.8553C984.311 67.8174 988.668 67.1476 993.258 69.1157C998.671 71.4368 1001.06 75.6485 1001 81.6217Z" fill="white"/>
<path d="M879.965 297C873.767 297.005 869.809 293.839 867.85 288.246C866.115 283.289 867.018 278.54 870.726 274.726C874.381 270.965 878.65 270.106 883.339 271.901C888.16 273.747 891.328 279.224 890.973 284.811C890.572 291.127 886.998 295.24 879.965 297Z" fill="white"/>
<path d="M915.231 114.215C910.982 120.693 905.583 122.559 900.237 119.699C895.213 117.011 892.75 110.824 894.629 105.609C896.762 99.6886 903.177 96.5622 908.917 98.6457C914.859 100.802 917.407 106.828 915.231 114.215Z" fill="white"/>
<path d="M924.164 363.581C930.637 360.112 936.256 360.151 940.783 363.631C945.006 366.877 945.955 370.953 944.087 375.52C941.481 381.891 934.333 384.664 927.637 381.981C920.587 379.158 917.899 371.907 921.784 366.07C922.332 365.246 923.147 364.558 924.164 363.581Z" fill="white"/>
<path d="M952.773 377.706C949.253 369.42 951.09 362.546 957.261 359.852C963.127 357.291 969.663 360.712 971.542 367.327C972.959 372.316 970.989 378.284 966.988 381.119C962.29 384.45 957.436 383.384 952.773 377.706Z" fill="white"/>
<path d="M894.959 85.5931C892.814 78.7118 894.33 73.0662 898.893 69.9017C902.894 67.1277 908.018 67.4107 911.63 70.6053C915.691 74.1974 917.146 80.4535 915.039 85.3819C911.134 94.5159 898.536 93.8224 894.959 85.5931Z" fill="white"/>
<path d="M944.278 113.911C940.353 119.775 936.292 121.724 930.549 120.769C925.149 119.87 921.123 116.279 920.23 111.502C919.292 106.482 921.228 102.521 925.906 99.862C930.576 97.2072 935.392 97.4497 939.923 100.216C944.588 103.064 946.034 107.589 944.278 113.911Z" fill="white"/>
<path d="M902.871 266C896.025 263.747 893.112 260.168 893.002 254.292C892.902 248.912 895.969 244.215 900.605 242.648C906.845 240.539 912.479 243.697 914.444 250.407C916.352 256.922 913.217 263.365 907.059 265.414C905.844 265.818 904.525 265.85 902.871 266Z" fill="white"/>
<path d="M879.895 119.958C872.143 120.402 867.337 117.298 866.228 111.455C865.076 105.388 868.374 100.009 874.218 98.4232C879.869 96.8899 885.776 99.6341 888.072 104.859C890.752 110.959 887.507 117.225 879.895 119.958Z" fill="white"/>
<path d="M960.045 207.793C954.233 208.7 950.038 206.628 947.497 201.524C945.296 197.104 945.447 192.543 948.448 188.54C951.427 184.565 955.533 183.304 960.188 184.352C964.866 185.406 968.449 189.799 968.935 194.813C969.473 200.372 966.708 204.561 960.045 207.793Z" fill="white"/>
<path d="M967.354 218.256C970.955 224.809 970.837 230.912 967.268 235.36C964.6 238.683 958.295 240.049 954.588 238.107C950.179 235.797 946.932 230.319 948.328 225.093C949.301 221.451 951.785 217.478 954.601 215.524C958.767 212.633 963.396 214.027 967.354 218.256Z" fill="white"/>
<path d="M920.664 219.48C924.859 215.143 929.613 214.007 934.946 215.846C941.441 218.084 944.538 224.727 942.251 231.042C940 237.256 932.539 240.59 926.12 238.25C919.67 235.899 916.461 229.395 918.722 223.124C919.14 221.964 919.845 220.901 920.664 219.48Z" fill="white"/>
<path d="M930.923 241C939.955 242.155 944 247.492 942.791 256.078C941.928 262.21 936.207 266.624 930.025 265.928C923.074 265.144 918.189 258.713 919.112 251.56C919.833 245.969 923.761 242.322 930.923 241Z" fill="white"/>
</svg>
